<?xml version="1.0" encoding="UTF-8" standalone="no"?>
<!DOCTYPE svg PUBLIC "-//W3C//DTD SVG 1.1//EN" "http://www.w3.org/Graphics/SVG/1.1/DTD/svg11.dtd">
<svg width="100%" height="100%" viewBox="0 0 748 105" version="1.1" xmlns="http://www.w3.org/2000/svg" xmlns:xlink="http://www.w3.org/1999/xlink" xml:space="preserve" xmlns:serif="http://www.serif.com/" style="fill-rule:evenodd;clip-rule:evenodd;stroke-linejoin:round;stroke-miterlimit:2;">
    <g transform="matrix(1,0,0,1,-1.42109e-14,-370)">
        <g id="Artboard1" transform="matrix(1.95591,0,0,1,1.42109e-14,370)">
            <rect x="0" y="0" width="382.43" height="104.63" style="fill:none;"/>
            <g id="Layer_1" transform="matrix(0.51127,0,0,1,0,0)">
                <path d="M140.76,52.2L134.32,52.2L134.32,76.2L125.32,76.2L125.32,52.2L120.67,52.2L120.67,44.49L125.32,44.49L125.32,41.49C125.32,33.72 130.17,29.73 137.55,29.73C138.691,29.741 139.828,29.875 140.94,30.13L140.94,39.13C139.966,38.745 138.928,38.545 137.88,38.54C137.797,38.534 137.714,38.53 137.63,38.53C135.831,38.53 134.35,40.011 134.35,41.81C134.35,41.894 134.354,41.977 134.36,42.06L134.36,44.45L140.8,44.45L140.76,52.2ZM154.32,76.2L145.22,76.2L145.22,30.4L154.32,30.4L154.32,76.2Z" style="fill-rule:nonzero;"/>
                <path d="M174.52,42.5C174.53,42.5 174.54,42.5 174.55,42.5C184.008,42.5 191.79,50.282 191.79,59.74C191.79,69.198 184.008,76.98 174.55,76.98C165.092,76.98 157.31,69.198 157.31,59.74C157.31,59.73 157.31,59.72 157.31,59.71C157.309,59.64 157.309,59.569 157.309,59.499C157.309,50.173 164.983,42.499 174.309,42.499C174.379,42.499 174.45,42.499 174.52,42.5ZM174.52,68.14C179.17,68.14 182.52,64.29 182.52,59.71C182.52,55.13 179.2,51.33 174.52,51.33C170.018,51.485 166.4,55.231 166.4,59.735C166.4,64.239 170.018,67.985 174.52,68.14Z" style="fill-rule:nonzero;"/>
                <path d="M201.23,43.16L207.07,65.16L212.92,47.69L211.33,43.17L220.33,43.17L228.04,65.17L233.76,43.17L243.12,43.17L233.29,76.26L223.86,76.26L217.28,58.12L211.17,76.26L201.67,76.26L191.9,43.17L201.23,43.16Z" style="fill-rule:nonzero;"/>
                <circle cx="53.08" cy="52.32" r="50" style="fill:rgb(0,239,139);"/>
                <rect x="60.91" y="44.49" width="14.12" height="14.12" style="fill:white;"/>
                <path d="M46.79,63.9C46.79,63.903 46.79,63.907 46.79,63.91C46.79,66.817 44.398,69.21 41.49,69.21C38.583,69.21 36.19,66.817 36.19,63.91C36.19,61.002 38.583,58.61 41.49,58.61C41.493,58.61 41.497,58.61 41.5,58.61L46.79,58.61L46.79,44.49L41.5,44.49C41.497,44.49 41.493,44.49 41.49,44.49C30.837,44.49 22.07,53.257 22.07,63.91C22.07,74.563 30.837,83.33 41.49,83.33C52.143,83.33 60.91,74.563 60.91,63.91C60.91,63.907 60.91,63.903 60.91,63.9L60.91,58.61L46.79,58.61L46.79,63.9Z" style="fill:white;fill-rule:nonzero;"/>
                <path d="M66.2,37.43L82.08,37.43L82.08,23.32L66.2,23.32C55.556,23.331 46.801,32.086 46.79,42.73L46.79,44.49L60.91,44.49L60.91,42.73C60.915,39.828 63.298,37.441 66.2,37.43Z" style="fill:white;fill-rule:nonzero;"/>
                <rect x="46.79" y="44.49" width="14.12" height="14.12" style="fill:rgb(22,255,153);fill-rule:nonzero;"/>
            </g>
            <g transform="matrix(0.414614,0,0,0.828552,12.5544,-78.1459)">
                <path d="M300.808,185L280.496,131.464L285.613,131.464L303.327,179.489L321.12,131.464L326.237,131.464L305.925,185L300.808,185Z" style="fill-rule:nonzero;"/>
                <path d="M358.438,133.905L358.438,139.416C355.026,136.529 351.116,135.086 346.707,135.086C343.453,135.086 340.855,135.886 338.913,137.487C336.971,139.088 336,141.2 336,143.825C336,146.921 337.784,149.651 341.353,152.012L351.746,158.704C354.947,160.751 357.217,162.785 358.556,164.806C359.894,166.827 360.563,169.202 360.563,171.931C360.563,175.762 359.107,179.03 356.194,181.733C353.281,184.436 349.279,185.787 344.188,185.787C339.516,185.787 335.186,184.606 331.197,182.244L331.197,176.576C334.924,179.778 339.228,181.378 344.109,181.378C347.731,181.378 350.565,180.473 352.612,178.662C354.659,176.852 355.682,174.66 355.682,172.088C355.682,168.729 353.504,165.659 349.148,162.877L338.913,156.264C333.717,153.01 331.119,148.916 331.119,143.982C331.119,140.361 332.444,137.238 335.095,134.613C337.745,131.989 341.695,130.677 346.943,130.677C351.3,130.677 355.131,131.753 358.438,133.905Z" style="fill-rule:nonzero;"/>
                <path d="M410.32,176.104L410.32,181.536C405.911,184.37 400.925,185.787 395.362,185.787C387.541,185.787 380.994,183.15 375.719,177.875C370.444,172.6 367.806,166.053 367.806,158.232C367.806,150.412 370.444,143.864 375.719,138.589C380.994,133.314 387.541,130.677 395.362,130.677C400.925,130.677 405.911,132.094 410.32,134.928L410.32,140.439C406.226,136.923 401.24,135.164 395.362,135.164C388.906,135.164 383.5,137.382 379.143,141.817C374.787,146.252 372.609,151.724 372.609,158.232C372.609,164.74 374.787,170.212 379.143,174.647C383.5,179.082 388.906,181.3 395.362,181.3C401.188,181.3 406.174,179.568 410.32,176.104Z" style="fill-rule:nonzero;"/>
                <path d="M422.287,180.119C418.508,176.287 416.619,171.59 416.619,166.026C416.619,160.463 418.508,155.791 422.287,152.012C426.066,148.233 430.737,146.344 436.301,146.344C441.864,146.344 446.536,148.233 450.315,152.012C454.094,155.791 455.983,160.463 455.983,166.026C455.983,171.642 454.094,176.34 450.315,180.119C446.536,183.898 441.864,185.787 436.301,185.787C430.737,185.787 426.066,183.898 422.287,180.119ZM421.264,166.026C421.264,170.33 422.707,173.965 425.594,176.93C428.48,179.896 432.049,181.378 436.301,181.378C440.552,181.378 444.134,179.896 447.047,176.93C449.96,173.965 451.417,170.33 451.417,166.026C451.417,161.775 449.96,158.166 447.047,155.201C444.134,152.236 440.552,150.753 436.301,150.753C432.049,150.753 428.48,152.236 425.594,155.201C422.707,158.166 421.264,161.775 421.264,166.026Z" style="fill-rule:nonzero;"/>
                <path d="M497.552,185L497.552,176.104C496.083,179.095 493.983,181.457 491.254,183.189C488.525,184.921 485.402,185.787 481.885,185.787C476.374,185.787 471.781,183.898 468.107,180.119C464.433,176.34 462.596,171.642 462.596,166.026C462.596,160.463 464.433,155.791 468.107,152.012C471.781,148.233 476.374,146.344 481.885,146.344C485.402,146.344 488.525,147.223 491.254,148.981C493.983,150.74 496.083,153.115 497.552,156.106L497.552,130.677L502.04,130.677L502.04,185L497.552,185ZM497.552,166.026C497.552,161.775 496.096,158.166 493.183,155.201C490.27,152.236 486.688,150.753 482.436,150.753C478.185,150.753 474.603,152.236 471.69,155.201C468.777,158.166 467.32,161.775 467.32,166.026C467.32,170.33 468.777,173.965 471.69,176.93C474.603,179.896 478.185,181.378 482.436,181.378C486.688,181.378 490.27,179.896 493.183,176.93C496.096,173.965 497.552,170.33 497.552,166.026Z" style="fill-rule:nonzero;"/>
                <path d="M548.569,167.995L515.896,167.995C516.263,171.931 517.825,175.185 520.58,177.757C523.336,180.329 526.708,181.615 530.697,181.615C533.269,181.615 535.815,181.09 538.334,180.04C540.853,178.99 542.979,177.731 544.711,176.261L544.711,181.3C540.46,184.291 535.71,185.787 530.461,185.787C525.002,185.787 520.436,183.911 516.762,180.158C513.088,176.405 511.251,171.695 511.251,166.026C511.251,160.463 513.062,155.791 516.683,152.012C520.305,148.233 524.819,146.344 530.225,146.344C535.578,146.344 540.013,148.155 543.53,151.776C547.047,155.398 548.805,159.859 548.805,165.16C548.805,166.42 548.726,167.365 548.569,167.995ZM530.225,150.359C526.288,150.359 522.969,151.684 520.266,154.335C517.562,156.986 516.08,160.279 515.817,164.216L544.396,164.216C544.344,160.122 542.966,156.789 540.263,154.217C537.56,151.645 534.214,150.359 530.225,150.359Z" style="fill-rule:nonzero;"/>
                <path d="M605.962,185L578.013,185L578.013,131.464L605.962,131.464L605.962,135.716L582.58,135.716L582.58,155.949L604.388,155.949L604.388,160.2L582.58,160.2L582.58,180.749L605.962,180.749L605.962,185Z" style="fill-rule:nonzero;"/>
                <path d="M628.243,169.569L617.772,185L612.339,185L625.566,166.026L612.339,147.131L617.772,147.131L628.243,162.562L638.871,147.131L644.225,147.131L631.077,166.026L644.225,185L638.871,185L628.243,169.569Z" style="fill-rule:nonzero;"/>
                <path d="M659.026,185L654.538,185L654.538,151.068L646.823,151.068L646.823,147.131L654.696,147.131L654.696,137.29L659.026,136.03L659.026,147.131L666.977,147.131L666.977,151.068L659.026,151.068L659.026,185Z" style="fill-rule:nonzero;"/>
                <path d="M707.838,167.995L675.165,167.995C675.533,171.931 677.094,175.185 679.85,177.757C682.605,180.329 685.977,181.615 689.966,181.615C692.538,181.615 695.084,181.09 697.603,180.04C700.122,178.99 702.248,177.731 703.98,176.261L703.98,181.3C699.729,184.291 694.979,185.787 689.73,185.787C684.271,185.787 679.705,183.911 676.031,180.158C672.357,176.405 670.52,171.695 670.52,166.026C670.52,160.463 672.331,155.791 675.952,152.012C679.574,148.233 684.088,146.344 689.494,146.344C694.847,146.344 699.282,148.155 702.799,151.776C706.316,155.398 708.074,159.859 708.074,165.16C708.074,166.42 707.995,167.365 707.838,167.995ZM689.494,150.359C685.557,150.359 682.238,151.684 679.535,154.335C676.832,156.986 675.349,160.279 675.086,164.216L703.665,164.216C703.613,160.122 702.235,156.789 699.532,154.217C696.829,151.645 693.483,150.359 689.494,150.359Z" style="fill-rule:nonzero;"/>
                <path d="M721.064,147.131L721.064,153.745C723.321,148.811 727.336,146.344 733.11,146.344C737.519,146.344 741.061,147.774 743.738,150.635C746.415,153.495 747.753,157.209 747.753,161.775L747.753,185L743.345,185L743.345,162.562C743.345,159.046 742.347,156.198 740.353,154.02C738.358,151.842 735.629,150.753 732.165,150.753C728.806,150.753 726.142,151.789 724.174,153.863C722.206,155.936 721.169,158.678 721.064,162.09L721.064,185L716.577,185L716.577,147.131L721.064,147.131Z" style="fill-rule:nonzero;"/>
                <path d="M778.143,148.548L778.143,153.666C775.414,151.514 772.448,150.438 769.246,150.438C766.937,150.438 765.126,150.976 763.814,152.052C762.502,153.128 761.846,154.532 761.846,156.264C761.846,157.419 762.161,158.39 762.791,159.177C763.421,159.964 764.444,160.804 765.861,161.696L773.183,166.105C777.487,168.729 779.639,171.905 779.639,175.631C779.639,178.833 778.484,181.326 776.175,183.111C773.865,184.895 770.821,185.787 767.042,185.787C763.683,185.787 760.429,184.948 757.28,183.268L757.28,177.993C760.114,180.512 763.368,181.772 767.042,181.772C769.509,181.772 771.451,181.208 772.868,180.079C774.285,178.951 774.994,177.494 774.994,175.71C774.994,173.506 773.445,171.485 770.349,169.648L762.791,165.003C759.064,162.746 757.201,159.833 757.201,156.264C757.201,153.377 758.251,151.002 760.35,149.139C762.45,147.276 765.441,146.344 769.325,146.344C772.579,146.344 775.519,147.079 778.143,148.548Z" style="fill-rule:nonzero;"/>
                <path d="M793.416,147.131L793.416,185L788.929,185L788.929,147.131L793.416,147.131ZM787.827,134.692C787.827,133.8 788.155,133.026 788.811,132.37C789.467,131.713 790.241,131.385 791.133,131.385C792.13,131.385 792.944,131.713 793.574,132.37C794.204,133.026 794.519,133.8 794.519,134.692C794.519,135.637 794.204,136.424 793.574,137.054C792.944,137.684 792.13,137.999 791.133,137.999C790.241,137.999 789.467,137.684 788.811,137.054C788.155,136.424 787.827,135.637 787.827,134.692Z" style="fill-rule:nonzero;"/>
                <path d="M808.296,180.119C804.517,176.287 802.628,171.59 802.628,166.026C802.628,160.463 804.517,155.791 808.296,152.012C812.075,148.233 816.746,146.344 822.31,146.344C827.873,146.344 832.545,148.233 836.324,152.012C840.103,155.791 841.992,160.463 841.992,166.026C841.992,171.642 840.103,176.34 836.324,180.119C832.545,183.898 827.873,185.787 822.31,185.787C816.746,185.787 812.075,183.898 808.296,180.119ZM807.273,166.026C807.273,170.33 808.716,173.965 811.603,176.93C814.489,179.896 818.059,181.378 822.31,181.378C826.561,181.378 830.143,179.896 833.056,176.93C835.969,173.965 837.426,170.33 837.426,166.026C837.426,161.775 835.969,158.166 833.056,155.201C830.143,152.236 826.561,150.753 822.31,150.753C818.059,150.753 814.489,152.236 811.603,155.201C808.716,158.166 807.273,161.775 807.273,166.026Z" style="fill-rule:nonzero;"/>
                <path d="M855.691,147.131L855.691,153.745C857.948,148.811 861.963,146.344 867.737,146.344C872.145,146.344 875.688,147.774 878.365,150.635C881.042,153.495 882.38,157.209 882.38,161.775L882.38,185L877.971,185L877.971,162.562C877.971,159.046 876.974,156.198 874.98,154.02C872.985,151.842 870.256,150.753 866.792,150.753C863.433,150.753 860.769,151.789 858.801,153.863C856.833,155.936 855.796,158.678 855.691,162.09L855.691,185L851.204,185L851.204,147.131L855.691,147.131Z" style="fill-rule:nonzero;"/>
            </g>
        </g>
    </g>
</svg>
