<svg width="30" height="31" viewBox="0 0 30 31" fill="none" xmlns="http://www.w3.org/2000/svg">
<path d="M14.6864 0.312012C6.57949 0.312012 0 7.14822 0 15.5714C0 23.9946 6.57949 30.8308 14.6864 30.8308C22.7932 30.8308 29.3727 23.9946 29.3727 15.5714C29.3727 7.14822 22.7932 0.312012 14.6864 0.312012ZM23.2045 11.0241H18.5342C17.6824 11.0241 16.9774 11.7566 16.9774 12.6416V13.1909H21.119V17.4941H16.9774V19.1116C16.9774 22.3771 14.422 25.0322 11.2791 25.0322C8.13625 25.0322 5.58082 22.3771 5.58082 19.1116C5.58082 15.8461 8.13625 13.1909 11.2791 13.1909H12.8359V12.6416C12.8359 9.37609 15.3913 6.72096 18.5342 6.72096H23.2045V11.0241Z" fill="white"/>
<path d="M9.72266 19.1116C9.72266 19.9967 10.4276 20.7291 11.2794 20.7291C12.1312 20.7291 12.8362 19.9967 12.8362 19.1116V17.4941H11.2794C10.4276 17.4941 9.72266 18.2266 9.72266 19.1116Z" fill="white"/>
<path d="M16.9775 13.1909H12.8359V17.4941H16.9775V13.1909Z" fill="white"/>
</svg>
